<?xml version="1.0" encoding="UTF-8"?>
<svg id="_圖層_1" data-name="圖層_1" xmlns="http://www.w3.org/2000/svg" version="1.1" viewBox="0 0 512 512">
  <!-- Generator: Adobe Illustrator 29.8.2, SVG Export Plug-In . SVG Version: 2.1.1 Build 3)  -->
  <defs>
    <style>
      .st0 {
        fill: #fff;
      }

      .st1 {
        fill: #8fc31f;
      }
    </style>
  </defs>
  <path class="st1" d="M339.71-.02h-167.75C77.29-.02-.17,77.44-.17,172.11v99.78c24.12-.41,39.64,3.73,39.64,3.73-.76-7.48-1.15-15.07-1.15-22.75,0-122.9,99.68-219.26,222.53-222.53,26.42-.71,36.95,8.25,36.95,8.25-33.2-7.92-69.41,9.81-69.41,9.81-26.03,12.07-39.61,70.55-39.61,70.55-1.89-36.97,7.54-59.98,7.54-59.98-67.53,23.39-70.17,100.35-70.17,100.35-6.41-13.2-4.53-43.38-4.53-43.38-54.7,63.38-21.5,129.02-21.5,129.02-12.07-10.19-18.86-30.56-18.86-30.56-6.79,82.24,30.93,126.76,30.93,126.76-.75-94.31,52.44-166.37,70.17-180.7,17.73-14.34,91.29-98.46,91.29-98.46-6.41,16.22-24.14,47.16-63.38,90.16-39.23,43.01-56.96,81.49-54.32,169.01,2.64,87.52,63.75,150.9,63.75,150.9-38.48-11.32-57.72-22.63-108.27-81.86C60.9,330.95,7.7,313.22,7.7,313.22c52.81,5.66,95.07,43.38,95.07,43.38C79.01,303.18,36.8,287.27-.17,284.98v43.31c21.04,14.46,35.3,30.27,48.99,46.42,25.28,29.8,67.15,54.32,67.15,54.32-71.68-22.26-72.81-37.35-109.4-69.79-1.99-1.76-4.04-3.52-6.15-5.27,7.24,88.13,81.62,158.01,171.54,158.01h167.75c94.67,0,172.12-77.46,172.12-172.12v-167.75C511.83,77.44,434.38-.02,339.71-.02ZM243.48,473.55s-47.53-50.93-49.42-136.94c-1.89-86.01,51.68-89.78,82.99-148.64,31.31-58.85,44.52-70.92,35.08-161.84,0,0,41.12,36.59,45.27,72.43s7.17,67.15,21.13,84.5c13.96,17.35,19.62,24.9,7.17,32.07-12.45,7.17-22.63,12.45-23.77,21.88-1.13,9.43,3.4,15.47,7.92,19.62,4.53,4.15-7.92,10.19-10.19,12.07-2.26,1.89-3.77,3.4-.38,7.17,3.4,3.77,4.9,8.3-.38,12.83-5.28,4.53-7.92,3.02-7.54,15.47.38,12.45-.38,28.29-16.6,27.92-16.22-.38-58.1-4.9-82.99,61.11,0,0-11.32-21.88-7.54-66.02,0,0-29.43,57.34-.75,146.37ZM260.85,475.4s-6.68-31.53,2.37-53.66c106.87,0,184.84-80.87,187.37-188.12,1.51-64.13-39.99-142.6-95.23-182.28,75.65,35.54,128.03,112.42,128.03,201.53,0,122.9-99.63,222.53-222.53,222.53Z"/>
  <path class="st0" d="M102.77,356.6s-42.25-37.72-95.07-43.38c0,0,53.19,17.73,103.74,76.96,50.55,59.23,69.79,70.55,108.27,81.86,0,0-61.11-63.38-63.75-150.9-2.64-87.52,15.09-126,54.32-169.01,39.23-43.01,56.96-73.94,63.38-90.16,0,0-73.56,84.13-91.29,98.46-17.73,14.34-70.92,86.39-70.17,180.7,0,0-37.72-44.52-30.93-126.76,0,0,6.79,20.37,18.86,30.56,0,0-33.2-65.64,21.5-129.02,0,0-1.89,30.18,4.53,43.38,0,0,2.64-76.96,70.17-100.35,0,0-9.43,23.01-7.54,59.98,0,0,13.58-58.47,39.61-70.55,0,0,36.22-17.73,69.41-9.81,0,0-10.53-8.96-36.95-8.25-122.86,3.28-222.53,99.63-222.53,222.53,0,7.68.39,15.27,1.15,22.75,0,0-15.52-4.14-39.64-3.73v13.09c36.97,2.3,79.17,18.2,102.94,71.62Z"/>
  <path class="st0" d="M355.36,51.34c55.24,39.68,96.74,118.15,95.23,182.28-2.52,107.25-80.49,188.12-187.37,188.12-9.05,22.13-2.37,53.66-2.37,53.66,122.9,0,222.53-99.63,222.53-222.53,0-89.11-52.38-165.99-128.03-201.53Z"/>
  <path class="st0" d="M115.97,429.03s-41.87-24.52-67.15-54.32c-13.69-16.14-27.95-31.95-48.99-46.42v11.57c0,4.75.2,9.45.59,14.11,2.11,1.75,4.17,3.51,6.15,5.27,36.59,32.44,37.72,47.53,109.4,69.79Z"/>
  <path class="st0" d="M251.78,393.19c24.9-66.02,66.77-61.49,82.99-61.11,16.22.38,16.98-15.47,16.6-27.92-.38-12.45,2.26-10.94,7.54-15.47,5.28-4.53,3.77-9.05.38-12.83-3.4-3.77-1.89-5.28.38-7.17,2.26-1.89,14.71-7.92,10.19-12.07-4.53-4.15-9.05-10.19-7.92-19.62,1.13-9.43,11.32-14.71,23.77-21.88,12.45-7.17,6.79-14.71-7.17-32.07-13.96-17.35-16.98-48.66-21.13-84.5s-45.27-72.43-45.27-72.43c9.43,90.92-3.77,102.99-35.08,161.84-31.31,58.85-84.88,62.62-82.99,148.64,1.89,86.01,49.42,136.94,49.42,136.94-28.67-89.03.75-146.37.75-146.37-3.77,44.14,7.54,66.02,7.54,66.02Z"/>
</svg>